<?xml version="1.0" encoding="UTF-8" standalone="no"?>
<!DOCTYPE svg PUBLIC "-//W3C//DTD SVG 1.1//EN" "http://www.w3.org/Graphics/SVG/1.1/DTD/svg11.dtd">
<svg width="100%" height="100%" viewBox="0 0 845 163" version="1.1" xmlns="http://www.w3.org/2000/svg" xmlns:xlink="http://www.w3.org/1999/xlink" xml:space="preserve" xmlns:serif="http://www.serif.com/" style="fill-rule:evenodd;clip-rule:evenodd;stroke-linejoin:round;stroke-miterlimit:2;">
    <g id="Artboard1" transform="matrix(0.888538,0,0,0.652,-266.562,-195.6)">
        <rect x="300" y="300" width="951" height="250" style="fill:none;"/>
        <g transform="matrix(1.12544,0,0,1.53374,-358.385,-1052.76)">
            <text x="585px" y="999.379px" style="font-family:'LuckiestGuy-Regular', 'Luckiest Guy';font-size:125px;fill:white;">F<tspan x="637.917px 716.165px 786.599px " y="999.379px 999.379px 999.379px ">ake</tspan>User.net</text>
            <path d="M646.953,911.433C646.971,911.145 646.87,910.863 646.673,910.653C646.476,910.444 646.201,910.325 645.913,910.325L589.639,910.325C589.072,910.325 588.61,910.777 588.597,911.343L586.644,999.356C586.638,999.64 586.748,999.914 586.948,1000.12C587.149,1000.32 587.422,1000.43 587.706,1000.42L618.59,999.81C619.158,999.799 619.613,999.334 619.611,998.765L619.492,963.648C619.492,963.648 639.839,963.067 639.839,963.067C640.377,963.051 640.814,962.629 640.849,962.092L642.07,943.172C642.088,942.884 641.987,942.602 641.79,942.392C641.593,942.182 641.318,942.063 641.03,942.063L619.611,942.063C619.611,942.063 619.611,936.403 619.611,936.403C619.611,936.403 644.502,935.112 644.502,935.112C645.022,935.085 645.442,934.678 645.486,934.16C645.813,930.324 646.078,926.529 646.282,922.775C646.485,919.035 646.709,915.254 646.953,911.433ZM645.913,911.366C645.669,915.191 645.445,918.975 645.242,922.719C645.038,926.462 644.774,930.246 644.448,934.071L618.569,935.414L618.569,943.104L641.03,943.104L639.81,962.025L618.447,962.636L618.569,998.769L587.686,999.379L589.639,911.366L645.913,911.366Z"/>
            <path d="M718.959,994.526L718.975,993.769L695.192,911.687C695.058,911.223 694.622,910.912 694.14,910.936L660.204,912.645C659.763,912.667 659.385,912.965 659.258,913.387L634.966,994.686C634.877,994.984 634.926,995.307 635.1,995.565C635.273,995.823 635.553,995.991 635.863,996.021L666.991,999.073C667.515,999.124 667.996,998.776 668.109,998.261L670.98,985.284C670.98,985.284 683.259,985.284 683.259,985.284C683.259,985.284 686.715,998.303 686.715,998.303C686.849,998.809 687.337,999.136 687.855,999.069L718.129,995.163C718.431,995.124 718.7,994.955 718.867,994.701C718.903,994.645 718.934,994.587 718.959,994.526ZM717.996,994.13L687.722,998.036L684.06,984.242L670.144,984.242L667.092,998.036L635.964,994.984L660.256,913.686L694.192,911.977L717.996,994.13ZM681.863,965.565L677.224,944.325L672.708,965.565L681.863,965.565ZM680.569,964.524L673.994,964.524C673.994,964.524 677.238,949.27 677.238,949.27L680.569,964.524Z"/>
            <path d="M717.93,993.905L717.996,994.13L717.925,994.139L717.809,999.356C717.802,999.643 717.915,999.92 718.119,1000.12C718.324,1000.32 718.603,1000.43 718.89,1000.42L744.281,999.443C744.824,999.422 745.259,998.988 745.282,998.445L746.137,977.478C746.137,977.478 762.934,1000.24 762.934,1000.24C763.169,1000.56 763.564,1000.72 763.953,1000.65L792.274,995.644C792.61,995.584 792.896,995.364 793.039,995.054C793.181,994.743 793.163,994.383 792.989,994.089L768.584,952.732C768.584,952.732 795.087,921.192 795.087,921.192C795.318,920.916 795.391,920.541 795.28,920.199C795.169,919.857 794.889,919.597 794.54,919.51L764.999,912.186C764.58,912.082 764.139,912.248 763.893,912.603L748.427,934.895C748.427,934.895 750.283,913.654 750.283,913.654C750.308,913.373 750.217,913.094 750.033,912.881C749.848,912.668 749.585,912.539 749.304,912.523L720.861,910.937C720.579,910.921 720.303,911.02 720.096,911.212C719.889,911.403 719.768,911.671 719.762,911.953L717.93,993.905ZM794.29,920.521L767.312,952.626L792.092,994.618L763.772,999.623L745.217,974.477L744.241,998.402L718.85,999.379L720.803,911.977L749.246,913.563L747.048,938.71L764.749,913.197L794.29,920.521Z"/>
            <path d="M858.869,950.063C858.869,946.667 858.589,943.323 858.03,940.031C857.469,936.726 856.616,933.587 855.473,930.615C854.322,927.623 852.857,924.872 851.078,922.361C849.286,919.831 847.178,917.649 844.753,915.815C842.326,913.979 839.561,912.541 836.459,911.507C833.368,910.477 829.953,909.958 826.211,909.958C821.731,909.958 817.639,910.611 813.934,911.909C810.221,913.209 806.898,915.015 803.961,917.322C801.035,919.621 798.475,922.306 796.28,925.379C794.096,928.436 792.286,931.754 790.851,935.331C789.421,938.895 788.354,942.604 787.65,946.457C786.946,950.304 786.595,954.15 786.595,957.997C786.595,961.686 786.947,965.333 787.652,968.939C788.358,972.552 789.396,975.977 790.767,979.216C792.144,982.47 793.875,985.474 795.962,988.228C798.058,990.995 800.501,993.396 803.289,995.429C806.081,997.466 809.198,999.052 812.641,1000.19C816.076,1001.32 819.866,1001.88 824.014,1001.88C826.007,1001.88 828.043,1001.76 830.119,1001.51C832.202,1001.26 834.264,1000.87 836.305,1000.33C838.357,999.78 840.336,999.068 842.242,998.188C844.165,997.301 845.95,996.223 847.598,994.956C847.824,994.782 847.969,994.523 847.999,994.239L850.928,966.529C850.971,966.126 850.776,965.735 850.428,965.527C850.081,965.318 849.644,965.33 849.308,965.558C848.06,966.403 846.569,967.35 844.837,968.397C843.116,969.438 841.314,970.409 839.433,971.309C837.566,972.203 835.689,972.948 833.801,973.544C831.982,974.119 830.307,974.411 828.774,974.411C825.89,974.411 823.404,973.616 821.325,972.005C819.537,970.619 818.156,968.834 817.176,966.654C823.615,965.738 830.054,964.814 836.492,963.88C843.341,962.887 850.231,962.168 857.162,961.722C857.656,961.69 858.059,961.315 858.127,960.825C858.621,957.237 858.869,953.65 858.869,950.063ZM857.827,950.063C857.827,953.603 857.583,957.143 857.095,960.683C850.137,961.13 843.219,961.852 836.343,962.849C829.466,963.846 822.59,964.833 815.713,965.81C816.771,968.739 818.429,971.079 820.687,972.829C822.946,974.578 825.641,975.453 828.774,975.453C830.402,975.453 832.182,975.148 834.115,974.538C836.048,973.927 837.97,973.164 839.883,972.249C841.795,971.333 843.626,970.347 845.376,969.289C847.126,968.231 848.631,967.274 849.893,966.42L846.963,994.13C845.376,995.351 843.657,996.388 841.805,997.243C839.954,998.097 838.031,998.789 836.038,999.318C834.044,999.847 832.03,1000.23 829.995,1000.48C827.961,1000.72 825.967,1000.84 824.014,1000.84C819.985,1000.84 816.303,1000.29 812.966,999.196C809.63,998.097 806.608,996.561 803.903,994.588C801.197,992.614 798.826,990.285 796.792,987.599C794.757,984.914 793.069,981.984 791.726,978.81C790.383,975.636 789.366,972.279 788.674,968.739C787.983,965.199 787.637,961.618 787.637,957.997C787.637,954.213 787.983,950.429 788.674,946.645C789.366,942.86 790.414,939.219 791.818,935.719C793.221,932.22 794.991,928.975 797.128,925.984C799.264,922.993 801.756,920.379 804.604,918.141C807.453,915.903 810.677,914.153 814.279,912.892C817.88,911.631 821.857,911 826.211,911C829.832,911 833.138,911.498 836.129,912.495C839.12,913.492 841.785,914.876 844.125,916.646C846.464,918.416 848.499,920.521 850.228,922.963C851.958,925.404 853.382,928.08 854.501,930.989C855.62,933.898 856.454,936.97 857.003,940.205C857.552,943.44 857.827,946.726 857.827,950.063ZM833.413,946.889C833.413,945.749 833.291,944.58 833.047,943.379C832.803,942.179 832.406,941.09 831.857,940.114C831.307,939.137 830.585,938.334 829.69,937.703C828.795,937.072 827.676,936.757 826.333,936.757C824.705,936.757 823.271,937.194 822.03,938.069C820.789,938.944 819.721,940.043 818.826,941.365C817.931,942.687 817.198,944.122 816.628,945.668C816.059,947.214 815.632,948.638 815.347,949.94L833.413,948.231L833.413,946.889ZM832.371,946.889L832.371,947.284C832.371,947.284 816.714,948.765 816.714,948.765C816.954,947.902 817.252,946.989 817.606,946.028C818.146,944.562 818.84,943.202 819.688,941.949C820.511,940.734 821.49,939.724 822.63,938.92C823.698,938.168 824.933,937.799 826.333,937.799C827.434,937.799 828.356,938.037 829.09,938.554C829.858,939.096 830.477,939.786 830.949,940.624C831.447,941.51 831.805,942.498 832.026,943.587C832.256,944.716 832.371,945.817 832.371,946.889Z"/>
            <path d="M935.834,931.508C935.834,925.699 935.589,919.973 935.098,914.328C935.051,913.789 934.6,913.376 934.06,913.376L905.496,913.376C905.208,913.376 904.932,913.496 904.736,913.706C904.539,913.916 904.437,914.198 904.456,914.485C904.659,917.607 904.811,920.739 904.912,923.881C905.014,927.024 905.064,930.176 905.064,933.339C905.064,934.188 905.044,935.482 905.004,937.221C904.963,938.959 904.872,940.959 904.731,943.223C904.589,945.494 904.406,947.948 904.183,950.585C903.961,953.212 903.668,955.838 903.304,958.465C902.942,961.082 902.499,963.6 901.975,966.016C901.458,968.401 900.854,970.508 900.158,972.336C899.494,974.082 898.733,975.481 897.861,976.524C897.154,977.369 896.376,977.829 895.486,977.829C894.773,977.829 894.17,977.47 893.642,976.814C892.953,975.957 892.372,974.854 891.888,973.512C891.378,972.101 890.978,970.542 890.684,968.837C890.383,967.093 890.152,965.39 889.992,963.726C889.831,962.057 889.72,960.549 889.66,959.202C889.6,957.859 889.569,956.847 889.569,956.166C889.569,949.698 889.964,943.261 890.752,936.854C891.543,930.421 892.487,924.018 893.583,917.646C893.634,917.35 893.554,917.047 893.365,916.814C893.176,916.581 892.896,916.44 892.596,916.429L864.032,915.33C863.516,915.31 863.063,915.672 862.968,916.18C861.904,921.865 861.086,927.56 860.514,933.265C859.941,938.976 859.654,944.697 859.654,950.429C859.654,954.16 859.828,958.045 860.177,962.084C860.527,966.142 861.155,970.118 862.062,974.011C862.973,977.927 864.237,981.635 865.854,985.136C867.491,988.684 869.591,991.789 872.152,994.455C874.726,997.135 877.817,999.269 881.426,1000.85C885.024,1002.43 889.262,1003.23 894.143,1003.23C898.318,1003.23 902.112,1002.52 905.528,1001.1C908.932,999.696 912.012,997.763 914.765,995.304C917.498,992.862 919.92,990.004 922.027,986.728C924.114,983.485 925.942,980.004 927.512,976.286C929.078,972.578 930.386,968.716 931.436,964.7C932.482,960.702 933.333,956.755 933.989,952.86C934.645,948.963 935.117,945.189 935.404,941.538C935.691,937.887 935.834,934.544 935.834,931.508ZM934.792,931.508C934.792,934.519 934.65,937.835 934.365,941.457C934.08,945.078 933.612,948.821 932.961,952.687C932.31,956.553 931.466,960.469 930.428,964.436C929.391,968.404 928.099,972.218 926.553,975.88C925.007,979.542 923.206,982.971 921.151,986.165C919.096,989.359 916.736,992.146 914.071,994.527C911.406,996.907 908.425,998.779 905.129,1000.14C901.833,1001.5 898.171,1002.19 894.143,1002.19C889.423,1002.19 885.323,1001.42 881.844,999.898C878.365,998.372 875.385,996.317 872.903,993.733C870.421,991.149 868.386,988.138 866.799,984.7C865.212,981.262 863.971,977.62 863.076,973.775C862.181,969.929 861.56,966.003 861.215,961.995C860.869,957.987 860.696,954.132 860.696,950.429C860.696,944.732 860.981,939.046 861.55,933.369C862.12,927.693 862.934,922.027 863.992,916.371L892.556,917.47C891.458,923.858 890.511,930.277 889.718,936.726C888.925,943.176 888.528,949.656 888.528,956.166C888.528,956.858 888.558,957.885 888.619,959.248C888.68,960.611 888.792,962.137 888.955,963.826C889.118,965.515 889.352,967.244 889.657,969.014C889.962,970.784 890.379,972.401 890.908,973.866C891.437,975.331 892.078,976.531 892.831,977.467C893.584,978.403 894.469,978.871 895.486,978.871C896.666,978.871 897.724,978.312 898.66,977.193C899.596,976.074 900.42,974.578 901.132,972.707C901.844,970.835 902.464,968.678 902.993,966.237C903.522,963.795 903.97,961.252 904.336,958.607C904.702,955.963 904.997,953.318 905.221,950.673C905.445,948.028 905.628,945.566 905.77,943.288C905.913,941.009 906.004,938.995 906.045,937.245C906.086,935.495 906.106,934.193 906.106,933.339C906.106,930.165 906.055,927.001 905.953,923.848C905.852,920.694 905.699,917.551 905.496,914.418L934.06,914.418C934.548,920.033 934.792,925.73 934.792,931.508Z"/>
            <path d="M1003.28,968.129C1003.28,964.747 1002.78,961.651 1001.78,958.84C1000.78,955.994 999.32,953.545 997.416,951.491C995.513,949.438 993.195,947.79 990.459,946.55C987.747,945.321 984.696,944.596 981.305,944.384C980.621,944.341 979.744,944.35 978.675,944.415C977.661,944.475 976.565,944.536 975.388,944.597C974.226,944.657 973.054,944.687 971.871,944.687C970.754,944.687 969.731,944.585 968.804,944.377C967.976,944.191 967.295,943.907 966.772,943.502C966.38,943.198 966.193,942.759 966.168,942.203C966.167,942.2 966.167,942.198 966.167,942.195C966.141,941.691 966.265,941.251 966.556,940.879C966.908,940.431 967.376,940.076 967.952,939.804C968.619,939.49 969.379,939.242 970.231,939.056C971.131,938.861 972.021,938.714 972.902,938.616C973.786,938.518 974.631,938.459 975.437,938.439C976.261,938.419 976.934,938.409 977.456,938.409C980.276,938.409 983.165,938.717 986.124,939.333C989.114,939.955 991.972,940.727 994.7,941.65C995.002,941.752 995.334,941.71 995.601,941.537C995.868,941.363 996.042,941.077 996.071,940.76L998.391,915.98C998.431,915.545 998.196,915.131 997.802,914.943C995.961,914.064 994.014,913.331 991.963,912.745C989.935,912.165 987.855,911.689 985.723,911.317C983.591,910.944 981.449,910.685 979.296,910.541C977.156,910.396 975.078,910.325 973.062,910.325C968.47,910.325 964.025,911.055 959.726,912.516C955.411,913.982 951.59,916.089 948.26,918.833C944.914,921.589 942.241,924.934 940.242,928.869C938.238,932.813 937.23,937.273 937.23,942.25C937.23,945.891 937.827,949.202 939.012,952.186C940.208,955.197 941.886,957.757 944.043,959.87C946.197,961.982 948.777,963.616 951.784,964.768C954.765,965.91 958.073,966.485 961.709,966.485L963.662,966.485C964.448,966.485 965.293,966.525 966.196,966.603C967.099,966.682 968.021,966.809 968.963,966.986C969.853,967.153 970.65,967.391 971.354,967.706C971.982,967.987 972.497,968.345 972.893,968.79C973.211,969.147 973.363,969.58 973.363,970.082C973.363,970.876 973.16,971.5 972.678,971.925C972.091,972.443 971.373,972.825 970.529,973.084C969.61,973.365 968.645,973.533 967.633,973.589C966.557,973.649 965.64,973.679 964.883,973.679C960.898,973.679 956.844,973.15 952.721,972.094C948.611,971.042 944.868,969.505 941.493,967.48C941.189,967.297 940.813,967.282 940.495,967.439C940.177,967.597 939.961,967.905 939.922,968.257L937.236,992.183C937.186,992.628 937.426,993.055 937.832,993.243C939.596,994.064 941.616,994.935 943.892,995.858C946.173,996.783 948.546,997.646 951.011,998.447C953.485,999.251 955.928,999.921 958.34,1000.46C960.802,1001 963.065,1001.27 965.127,1001.27C970.393,1001.27 975.318,1000.64 979.9,999.376C984.536,998.096 988.583,996.1 992.044,993.394C995.526,990.672 998.272,987.212 1000.28,983.012C1002.27,978.837 1003.28,973.878 1003.28,968.129ZM1002.24,968.129C1002.24,973.703 1001.27,978.515 999.337,982.564C997.404,986.612 994.76,989.949 991.403,992.573C988.046,995.198 984.119,997.131 979.623,998.372C975.127,999.613 970.295,1000.23 965.127,1000.23C963.133,1000.23 960.946,999.969 958.566,999.44C956.185,998.911 953.774,998.25 951.333,997.456C948.892,996.663 946.542,995.808 944.283,994.893C942.025,993.977 940.021,993.113 938.271,992.299L940.957,968.373C944.416,970.448 948.251,972.025 952.462,973.103C956.674,974.182 960.814,974.721 964.883,974.721C965.656,974.721 966.592,974.69 967.69,974.629C968.789,974.568 969.837,974.385 970.834,974.08C971.831,973.775 972.675,973.317 973.367,972.707C974.058,972.096 974.404,971.221 974.404,970.082C974.404,969.309 974.16,968.648 973.672,968.098C973.184,967.549 972.553,967.101 971.78,966.756C971.007,966.41 970.132,966.145 969.155,965.962C968.179,965.779 967.222,965.647 966.287,965.565C965.351,965.484 964.476,965.443 963.662,965.443L961.709,965.443C958.21,965.443 955.026,964.894 952.157,963.795C949.288,962.697 946.827,961.14 944.772,959.126C942.717,957.112 941.12,954.671 939.98,951.802C938.841,948.933 938.271,945.749 938.271,942.25C938.271,937.449 939.238,933.146 941.171,929.341C943.103,925.537 945.687,922.302 948.922,919.636C952.157,916.971 955.87,914.927 960.061,913.502C964.252,912.078 968.586,911.366 973.062,911.366C975.055,911.366 977.11,911.437 979.226,911.58C981.342,911.722 983.448,911.977 985.543,912.343C987.639,912.709 989.683,913.177 991.677,913.747C993.671,914.316 995.563,915.028 997.354,915.883L995.034,940.663C992.267,939.727 989.368,938.944 986.337,938.313C983.305,937.683 980.345,937.367 977.456,937.367C976.927,937.367 976.246,937.377 975.411,937.398C974.577,937.418 973.702,937.479 972.787,937.581C971.871,937.683 970.946,937.835 970.01,938.039C969.074,938.242 968.24,938.517 967.507,938.863C966.775,939.208 966.185,939.666 965.737,940.236C965.29,940.806 965.086,941.477 965.127,942.25C965.168,943.145 965.503,943.837 966.134,944.325C966.765,944.813 967.579,945.17 968.575,945.393C969.572,945.617 970.671,945.729 971.871,945.729C973.072,945.729 974.262,945.698 975.442,945.637C976.622,945.576 977.721,945.515 978.738,945.454C979.755,945.393 980.589,945.383 981.24,945.424C984.495,945.627 987.425,946.319 990.029,947.499C992.633,948.679 994.841,950.246 996.652,952.199C998.462,954.152 999.846,956.481 1000.8,959.187C1001.76,961.893 1002.24,964.874 1002.24,968.129Z"/>
            <path d="M1075.3,950.063C1075.3,946.667 1075.02,943.323 1074.46,940.031C1073.9,936.726 1073.05,933.587 1071.9,930.615C1070.75,927.623 1069.29,924.872 1067.51,922.361C1065.72,919.831 1063.61,917.649 1061.18,915.815C1058.76,913.979 1055.99,912.541 1052.89,911.507C1049.8,910.477 1046.38,909.958 1042.64,909.958C1038.16,909.958 1034.07,910.611 1030.37,911.909C1026.65,913.209 1023.33,915.015 1020.39,917.322C1017.47,919.621 1014.9,922.306 1012.71,925.379C1010.53,928.436 1008.72,931.754 1007.28,935.331C1005.85,938.895 1004.78,942.604 1004.08,946.457C1003.38,950.304 1003.03,954.15 1003.03,957.997C1003.03,961.686 1003.38,965.333 1004.08,968.939C1004.79,972.552 1005.83,975.977 1007.2,979.216C1008.57,982.47 1010.31,985.474 1012.39,988.228C1014.49,990.995 1016.93,993.396 1019.72,995.429C1022.51,997.466 1025.63,999.052 1029.07,1000.19C1032.51,1001.32 1036.3,1001.88 1040.44,1001.88C1042.44,1001.88 1044.47,1001.76 1046.55,1001.51C1048.63,1001.26 1050.69,1000.87 1052.74,1000.33C1054.79,999.78 1056.77,999.068 1058.67,998.188C1060.6,997.301 1062.38,996.223 1064.03,994.956C1064.26,994.782 1064.4,994.523 1064.43,994.239L1067.36,966.529C1067.4,966.126 1067.21,965.735 1066.86,965.527C1066.51,965.318 1066.08,965.33 1065.74,965.558C1064.49,966.403 1063,967.35 1061.27,968.397C1059.55,969.438 1057.75,970.409 1055.86,971.309C1054,972.203 1052.12,972.948 1050.23,973.544C1048.41,974.119 1046.74,974.411 1045.2,974.411C1042.32,974.411 1039.84,973.616 1037.76,972.005C1035.97,970.619 1034.59,968.834 1033.61,966.654C1040.05,965.738 1046.48,964.814 1052.92,963.88C1059.77,962.887 1066.66,962.168 1073.59,961.722C1074.09,961.69 1074.49,961.315 1074.56,960.825C1075.05,957.237 1075.3,953.65 1075.3,950.063ZM1074.26,950.063C1074.26,953.603 1074.01,957.143 1073.53,960.683C1066.57,961.13 1059.65,961.852 1052.77,962.849C1045.9,963.846 1039.02,964.833 1032.14,965.81C1033.2,968.739 1034.86,971.079 1037.12,972.829C1039.38,974.578 1042.07,975.453 1045.2,975.453C1046.83,975.453 1048.61,975.148 1050.55,974.538C1052.48,973.927 1054.4,973.164 1056.31,972.249C1058.23,971.333 1060.06,970.347 1061.81,969.289C1063.56,968.231 1065.06,967.274 1066.32,966.42L1063.39,994.13C1061.81,995.351 1060.09,996.388 1058.24,997.243C1056.38,998.097 1054.46,998.789 1052.47,999.318C1050.47,999.847 1048.46,1000.23 1046.43,1000.48C1044.39,1000.72 1042.4,1000.84 1040.44,1000.84C1036.42,1000.84 1032.73,1000.29 1029.4,999.196C1026.06,998.097 1023.04,996.561 1020.33,994.588C1017.63,992.614 1015.26,990.285 1013.22,987.599C1011.19,984.914 1009.5,981.984 1008.16,978.81C1006.81,975.636 1005.8,972.279 1005.11,968.739C1004.41,965.199 1004.07,961.618 1004.07,957.997C1004.07,954.213 1004.41,950.429 1005.11,946.645C1005.8,942.86 1006.84,939.219 1008.25,935.719C1009.65,932.22 1011.42,928.975 1013.56,925.984C1015.7,922.993 1018.19,920.379 1021.03,918.141C1023.88,915.903 1027.11,914.153 1030.71,912.892C1034.31,911.631 1038.29,911 1042.64,911C1046.26,911 1049.57,911.498 1052.56,912.495C1055.55,913.492 1058.22,914.876 1060.56,916.646C1062.89,918.416 1064.93,920.521 1066.66,922.963C1068.39,925.404 1069.81,928.08 1070.93,930.989C1072.05,933.898 1072.88,936.97 1073.43,940.205C1073.98,943.44 1074.26,946.726 1074.26,950.063ZM1049.84,946.889C1049.84,945.749 1049.72,944.58 1049.48,943.379C1049.23,942.179 1048.84,941.09 1048.29,940.114C1047.74,939.137 1047.02,938.334 1046.12,937.703C1045.22,937.072 1044.11,936.757 1042.76,936.757C1041.14,936.757 1039.7,937.194 1038.46,938.069C1037.22,938.944 1036.15,940.043 1035.26,941.365C1034.36,942.687 1033.63,944.122 1033.06,945.668C1032.49,947.214 1032.06,948.638 1031.78,949.94L1049.84,948.231L1049.84,946.889ZM1048.8,946.889L1048.8,947.284C1048.8,947.284 1033.14,948.765 1033.14,948.765C1033.38,947.902 1033.68,946.989 1034.04,946.028C1034.58,944.562 1035.27,943.202 1036.12,941.949C1036.94,940.734 1037.92,939.724 1039.06,938.92C1040.13,938.168 1041.36,937.799 1042.76,937.799C1043.86,937.799 1044.79,938.037 1045.52,938.554C1046.29,939.096 1046.91,939.786 1047.38,940.624C1047.88,941.51 1048.24,942.498 1048.46,943.587C1048.69,944.716 1048.8,945.817 1048.8,946.889Z"/>
            <path d="M1150.8,940.541C1150.8,935.269 1149.75,930.653 1147.66,926.689C1145.57,922.728 1142.8,919.421 1139.35,916.766C1135.91,914.126 1131.96,912.145 1127.5,910.825C1123.07,909.515 1118.49,908.86 1113.75,908.86C1110.72,908.86 1107.76,908.931 1104.88,909.075C1101.98,909.219 1099.12,909.486 1096.3,909.877C1093.48,910.268 1090.66,910.814 1087.86,911.515C1085.06,912.216 1082.21,913.102 1079.33,914.174C1078.94,914.319 1078.67,914.681 1078.65,915.096C1078.4,919.788 1078.24,924.438 1078.16,929.048C1078.08,933.645 1078,938.282 1077.92,942.96C1077.67,952.238 1077.46,961.475 1077.28,970.672C1077.09,979.867 1076.9,989.103 1076.69,998.38C1076.69,998.66 1076.8,998.93 1076.99,999.131C1077.19,999.331 1077.46,999.444 1077.74,999.444L1103.98,999.444C1104.54,999.444 1105,999.005 1105.02,998.447L1106.08,974.022C1106.08,974.022 1111.93,973.833 1111.93,973.833C1111.93,973.833 1121.07,999.123 1121.07,999.123C1121.24,999.606 1121.74,999.889 1122.25,999.791L1149.71,994.42C1150.04,994.356 1150.32,994.138 1150.46,993.835C1150.6,993.531 1150.59,993.179 1150.42,992.888L1136.38,967.864C1138.73,966.314 1140.77,964.697 1142.49,963.014C1144.44,961.108 1146.03,959.033 1147.25,956.788C1148.48,954.545 1149.38,952.081 1149.95,949.394C1150.52,946.745 1150.8,943.795 1150.8,940.541ZM1149.76,940.541C1149.76,943.715 1149.48,946.594 1148.93,949.177C1148.38,951.761 1147.52,954.132 1146.34,956.288C1145.16,958.445 1143.63,960.438 1141.76,962.27C1139.89,964.101 1137.63,965.85 1134.99,967.519L1149.51,993.397L1122.05,998.769L1112.65,972.768L1105.08,973.012L1103.98,998.402L1077.74,998.402C1077.94,989.125 1078.13,979.888 1078.32,970.692C1078.5,961.496 1078.71,952.26 1078.96,942.982C1079.04,938.303 1079.12,933.664 1079.2,929.066C1079.28,924.468 1079.45,919.83 1079.69,915.15C1082.54,914.092 1085.35,913.218 1088.11,912.526C1090.88,911.834 1093.66,911.295 1096.44,910.908C1099.23,910.522 1102.06,910.257 1104.93,910.115C1107.8,909.973 1110.74,909.901 1113.75,909.901C1118.39,909.901 1122.87,910.542 1127.21,911.824C1131.54,913.106 1135.37,915.028 1138.71,917.592C1142.05,920.155 1144.72,923.349 1146.74,927.174C1148.75,930.999 1149.76,935.455 1149.76,940.541ZM1122.41,942.494C1122.41,940.785 1122.18,939.219 1121.71,937.794C1121.25,936.37 1120.55,935.139 1119.64,934.102C1118.72,933.064 1117.58,932.25 1116.22,931.66C1114.86,931.07 1113.26,930.775 1111.43,930.775C1110.61,930.775 1109.82,930.826 1109.05,930.928C1108.28,931.03 1107.52,931.182 1106.79,931.386L1105.81,954.091L1107.28,954.091C1109.03,954.091 1110.81,953.867 1112.62,953.419C1114.43,952.972 1116.06,952.28 1117.5,951.344C1118.95,950.408 1120.13,949.208 1121.04,947.743C1121.96,946.278 1122.41,944.529 1122.41,942.494ZM1121.37,942.494C1121.37,944.313 1120.98,945.881 1120.16,947.191C1119.32,948.525 1118.25,949.618 1116.93,950.47C1115.58,951.345 1114.06,951.99 1112.37,952.408C1110.64,952.835 1108.95,953.049 1107.28,953.049L1106.9,953.049C1106.9,953.049 1107.8,932.207 1107.8,932.207C1108.25,932.105 1108.71,932.023 1109.18,931.961C1109.91,931.865 1110.66,931.817 1111.43,931.817C1113.1,931.817 1114.56,932.078 1115.81,932.616C1117.02,933.143 1118.04,933.866 1118.86,934.791C1119.68,935.726 1120.3,936.836 1120.72,938.12C1121.16,939.445 1121.37,940.904 1121.37,942.494Z"/>
            <path d="M1178.63,986.806C1178.63,984.91 1178.26,983.103 1177.51,981.385C1176.76,979.674 1175.76,978.194 1174.51,976.944C1173.26,975.696 1171.81,974.698 1170.14,973.953C1168.46,973.202 1166.67,972.825 1164.77,972.825C1162.83,972.825 1161.02,973.202 1159.34,973.953C1157.68,974.698 1156.22,975.696 1154.97,976.944C1153.72,978.197 1152.73,979.68 1152,981.395C1151.28,983.111 1150.91,984.914 1150.91,986.806C1150.91,988.745 1151.28,990.551 1152.01,992.225C1152.73,993.894 1153.72,995.354 1154.97,996.606C1156.22,997.858 1157.68,998.847 1159.35,999.571C1161.03,1000.3 1162.83,1000.67 1164.77,1000.67C1166.67,1000.67 1168.46,1000.3 1170.13,999.571C1171.8,998.847 1173.26,997.858 1174.51,996.606C1175.76,995.357 1176.76,993.901 1177.5,992.236C1178.25,990.558 1178.63,988.748 1178.63,986.806ZM1177.59,986.806C1177.59,988.596 1177.24,990.264 1176.55,991.811C1175.86,993.357 1174.93,994.71 1173.78,995.869C1172.62,997.029 1171.26,997.945 1169.72,998.616C1168.17,999.287 1166.52,999.623 1164.77,999.623C1162.98,999.623 1161.31,999.287 1159.77,998.616C1158.22,997.945 1156.87,997.029 1155.71,995.869C1154.55,994.71 1153.63,993.357 1152.96,991.811C1152.29,990.264 1151.96,988.596 1151.96,986.806C1151.96,985.056 1152.29,983.388 1152.96,981.801C1153.63,980.214 1154.55,978.841 1155.71,977.681C1156.87,976.521 1158.22,975.596 1159.77,974.904C1161.31,974.212 1162.98,973.866 1164.77,973.866C1166.52,973.866 1168.17,974.212 1169.72,974.904C1171.26,975.596 1172.62,976.521 1173.78,977.681C1174.93,978.841 1175.86,980.214 1176.55,981.801C1177.24,983.388 1177.59,985.056 1177.59,986.806Z"/>
            <path d="M1258.47,968.495L1258.47,960.377C1258.47,957.392 1258.39,954.304 1258.25,951.114C1258.11,947.914 1257.83,944.662 1257.42,941.359C1257.01,938.038 1256.41,934.851 1255.63,931.798C1254.84,928.721 1253.8,925.821 1252.51,923.097C1251.19,920.326 1249.56,917.926 1247.62,915.894C1245.65,913.844 1243.3,912.219 1240.57,911.022C1237.85,909.83 1234.67,909.226 1231.06,909.226C1229.08,909.226 1227.2,909.496 1225.42,910.033C1223.65,910.565 1221.98,911.29 1220.4,912.205C1218.83,913.118 1217.36,914.21 1215.98,915.484C1215.33,916.079 1214.71,916.694 1214.1,917.328C1214.1,917.329 1214.28,910.416 1214.28,910.416C1214.28,910.126 1214.17,909.846 1213.96,909.644C1213.75,909.441 1213.47,909.335 1213.18,909.349L1184.37,910.814C1183.83,910.842 1183.4,911.28 1183.38,911.822C1182.94,926.178 1182.34,940.453 1181.59,954.646C1180.83,968.846 1180.05,983.127 1179.24,997.489C1179.22,997.783 1179.33,998.07 1179.53,998.279C1179.74,998.489 1180.03,998.601 1180.32,998.589L1211.45,997.246C1212,997.222 1212.43,996.781 1212.44,996.234C1212.65,988.988 1212.81,981.812 1212.93,974.708C1213.06,967.611 1213.22,960.464 1213.42,953.266C1213.42,953.256 1213.42,953.246 1213.42,953.236C1213.42,952.353 1213.45,951.218 1213.51,949.833C1213.57,948.452 1213.69,946.982 1213.87,945.421C1214.05,943.873 1214.32,942.324 1214.68,940.775C1215.02,939.272 1215.5,937.912 1216.09,936.698C1216.65,935.554 1217.36,934.615 1218.21,933.888C1218.98,933.232 1219.93,932.916 1221.05,932.916C1221.5,932.916 1221.84,933.214 1222.16,933.698C1222.66,934.46 1223.08,935.437 1223.44,936.626C1223.81,937.883 1224.1,939.268 1224.32,940.78C1224.54,942.325 1224.71,943.83 1224.83,945.296C1224.95,946.762 1225.03,948.078 1225.07,949.244C1225.11,950.407 1225.13,951.25 1225.13,951.771C1225.13,959.052 1224.69,966.262 1223.8,973.402C1222.9,980.568 1221.85,987.745 1220.63,994.932C1220.58,995.232 1220.66,995.538 1220.86,995.772C1221.05,996.005 1221.34,996.143 1221.64,996.148L1256.8,996.758C1257.36,996.768 1257.83,996.327 1257.86,995.763C1258.06,991.198 1258.21,986.664 1258.31,982.16C1258.41,977.656 1258.47,973.101 1258.47,968.495ZM1257.42,968.495C1257.42,973.093 1257.37,977.64 1257.27,982.136C1257.17,986.633 1257.02,991.16 1256.81,995.717L1221.66,995.106C1222.88,987.904 1223.94,980.712 1224.83,973.531C1225.73,966.349 1226.17,959.096 1226.17,951.771C1226.17,951.243 1226.15,950.388 1226.11,949.208C1226.07,948.028 1225.99,946.695 1225.87,945.21C1225.75,943.725 1225.57,942.199 1225.35,940.633C1225.13,939.066 1224.82,937.632 1224.43,936.33C1224.05,935.028 1223.58,933.959 1223.03,933.125C1222.48,932.291 1221.82,931.874 1221.05,931.874C1219.66,931.874 1218.49,932.281 1217.54,933.095C1216.58,933.909 1215.79,934.956 1215.16,936.238C1214.53,937.52 1214.03,938.954 1213.66,940.541C1213.3,942.128 1213.02,943.715 1212.84,945.302C1212.65,946.889 1212.53,948.384 1212.47,949.788C1212.41,951.192 1212.38,952.341 1212.38,953.236C1212.18,960.438 1212.01,967.59 1211.89,974.69C1211.77,981.791 1211.61,988.962 1211.4,996.205L1180.28,997.548C1181.09,983.184 1181.87,968.902 1182.63,954.701C1183.38,940.5 1183.98,926.218 1184.43,911.854L1213.24,910.39L1212.99,920.155C1214.13,918.772 1215.36,917.47 1216.68,916.249C1218.01,915.028 1219.42,913.981 1220.92,913.106C1222.43,912.231 1224.03,911.539 1225.72,911.031C1227.4,910.522 1229.18,910.268 1231.06,910.268C1234.52,910.268 1237.55,910.837 1240.15,911.977C1242.76,913.116 1244.99,914.662 1246.87,916.615C1248.74,918.568 1250.3,920.878 1251.57,923.543C1252.83,926.208 1253.84,929.046 1254.62,932.057C1255.39,935.068 1255.98,938.212 1256.39,941.487C1256.79,944.763 1257.07,947.987 1257.21,951.161C1257.35,954.335 1257.42,957.407 1257.42,960.377L1257.42,968.495Z"/>
            <path d="M1332.32,950.063C1332.32,946.667 1332.04,943.323 1331.48,940.031C1330.92,936.726 1330.07,933.587 1328.92,930.615C1327.77,927.623 1326.31,924.872 1324.53,922.361C1322.74,919.831 1320.63,917.649 1318.2,915.815C1315.78,913.979 1313.01,912.541 1309.91,911.507C1306.82,910.477 1303.4,909.958 1299.66,909.958C1295.18,909.958 1291.09,910.611 1287.38,911.909C1283.67,913.209 1280.35,915.015 1277.41,917.322C1274.49,919.621 1271.92,922.306 1269.73,925.379C1267.55,928.436 1265.74,931.754 1264.3,935.331C1262.87,938.895 1261.8,942.604 1261.1,946.457C1260.4,950.304 1260.05,954.15 1260.05,957.997C1260.05,961.686 1260.4,965.333 1261.1,968.939C1261.81,972.552 1262.85,975.977 1264.22,979.216C1265.59,982.47 1267.33,985.474 1269.41,988.228C1271.51,990.995 1273.95,993.396 1276.74,995.429C1279.53,997.466 1282.65,999.052 1286.09,1000.19C1289.53,1001.32 1293.32,1001.88 1297.46,1001.88C1299.46,1001.88 1301.49,1001.76 1303.57,1001.51C1305.65,1001.26 1307.71,1000.87 1309.75,1000.33C1311.81,999.78 1313.79,999.068 1315.69,998.188C1317.61,997.301 1319.4,996.223 1321.05,994.956C1321.27,994.782 1321.42,994.523 1321.45,994.239L1324.38,966.529C1324.42,966.126 1324.23,965.735 1323.88,965.527C1323.53,965.318 1323.09,965.33 1322.76,965.558C1321.51,966.403 1320.02,967.35 1318.29,968.397C1316.57,969.438 1314.76,970.409 1312.88,971.309C1311.02,972.203 1309.14,972.948 1307.25,973.544C1305.43,974.119 1303.76,974.411 1302.22,974.411C1299.34,974.411 1296.85,973.616 1294.78,972.005C1292.99,970.619 1291.61,968.834 1290.63,966.654C1297.07,965.738 1303.5,964.814 1309.94,963.88C1316.79,962.887 1323.68,962.168 1330.61,961.722C1331.11,961.69 1331.51,961.315 1331.58,960.825C1332.07,957.237 1332.32,953.65 1332.32,950.063ZM1331.28,950.063C1331.28,953.603 1331.03,957.143 1330.54,960.683C1323.59,961.13 1316.67,961.852 1309.79,962.849C1302.92,963.846 1296.04,964.833 1289.16,965.81C1290.22,968.739 1291.88,971.079 1294.14,972.829C1296.39,974.578 1299.09,975.453 1302.22,975.453C1303.85,975.453 1305.63,975.148 1307.57,974.538C1309.5,973.927 1311.42,973.164 1313.33,972.249C1315.25,971.333 1317.08,970.347 1318.83,969.289C1320.58,968.231 1322.08,967.274 1323.34,966.42L1320.41,994.13C1318.83,995.351 1317.11,996.388 1315.26,997.243C1313.4,998.097 1311.48,998.789 1309.49,999.318C1307.49,999.847 1305.48,1000.23 1303.44,1000.48C1301.41,1000.72 1299.42,1000.84 1297.46,1000.84C1293.43,1000.84 1289.75,1000.29 1286.42,999.196C1283.08,998.097 1280.06,996.561 1277.35,994.588C1274.65,992.614 1272.28,990.285 1270.24,987.599C1268.21,984.914 1266.52,981.984 1265.18,978.81C1263.83,975.636 1262.82,972.279 1262.12,968.739C1261.43,965.199 1261.09,961.618 1261.09,957.997C1261.09,954.213 1261.43,950.429 1262.12,946.645C1262.82,942.86 1263.86,939.219 1265.27,935.719C1266.67,932.22 1268.44,928.975 1270.58,925.984C1272.71,922.993 1275.21,920.379 1278.05,918.141C1280.9,915.903 1284.13,914.153 1287.73,912.892C1291.33,911.631 1295.31,911 1299.66,911C1303.28,911 1306.59,911.498 1309.58,912.495C1312.57,913.492 1315.24,914.876 1317.57,916.646C1319.91,918.416 1321.95,920.521 1323.68,922.963C1325.41,925.404 1326.83,928.08 1327.95,930.989C1329.07,933.898 1329.9,936.97 1330.45,940.205C1331,943.44 1331.28,946.726 1331.28,950.063ZM1306.86,946.889C1306.86,945.749 1306.74,944.58 1306.5,943.379C1306.25,942.179 1305.86,941.09 1305.31,940.114C1304.76,939.137 1304.04,938.334 1303.14,937.703C1302.24,937.072 1301.12,936.757 1299.78,936.757C1298.15,936.757 1296.72,937.194 1295.48,938.069C1294.24,938.944 1293.17,940.043 1292.28,941.365C1291.38,942.687 1290.65,944.122 1290.08,945.668C1289.51,947.214 1289.08,948.638 1288.8,949.94L1306.86,948.231L1306.86,946.889ZM1305.82,946.889L1305.82,947.284C1305.82,947.284 1290.16,948.765 1290.16,948.765C1290.4,947.902 1290.7,946.989 1291.06,946.028C1291.6,944.562 1292.29,943.202 1293.14,941.949C1293.96,940.734 1294.94,939.724 1296.08,938.92C1297.15,938.168 1298.38,937.799 1299.78,937.799C1300.88,937.799 1301.81,938.037 1302.54,938.554C1303.31,939.096 1303.93,939.786 1304.4,940.624C1304.9,941.51 1305.25,942.498 1305.48,943.587C1305.71,944.716 1305.82,945.817 1305.82,946.889Z"/>
            <path d="M1400.92,913.344C1400.93,913.063 1400.82,912.792 1400.62,912.591C1400.43,912.39 1400.16,912.277 1399.88,912.278L1333.35,912.4C1332.79,912.401 1332.33,912.851 1332.31,913.415L1331.58,942.224C1331.57,942.514 1331.68,942.794 1331.89,942.997C1332.1,943.199 1332.38,943.306 1332.67,943.29L1349.81,942.37C1349.81,942.37 1352.09,997.957 1352.09,997.957C1352.1,998.235 1352.22,998.497 1352.43,998.684C1352.63,998.871 1352.9,998.969 1353.18,998.954L1378.94,997.612C1379.48,997.583 1379.9,997.15 1379.92,996.612L1382.09,940.933C1382.09,940.933 1399.31,940.239 1399.31,940.239C1399.86,940.217 1400.3,939.772 1400.31,939.223L1400.92,913.344ZM1399.88,913.319L1399.27,939.198L1381.08,939.931L1378.88,996.571L1353.13,997.914L1350.81,941.273L1332.62,942.25L1333.35,913.441L1399.88,913.319Z"/>
        </g>
    </g>
</svg>
